<?xml version="1.0" ?><!-- Uploaded to: SVG Repo, www.svgrepo.com, Generator: SVG Repo Mixer Tools -->
<svg width="800px" height="800px" viewBox="0 0 32 32" id="OBJECT" xmlns="http://www.w3.org/2000/svg"><defs><style>.cls-1{fill:#b2b2b2;}</style></defs><title/><rect class="cls-1" height="22" rx="3" ry="3" width="30" x="1" y="5"/><path class="cls-1" d="M18.12,12.71a3,3,0,0,0-4.24,0L1.3,25.29A3,3,0,0,0,4,27H28a3,3,0,0,0,2.7-1.71Z"/><path d="M28,5H4A3,3,0,0,0,1.3,6.71L13.88,19.29a3,3,0,0,0,4.24,0L30.7,6.71A3,3,0,0,0,28,5Z"/></svg>